<mxfile host="app.diagrams.net" agent="Mozilla/5.0 (Windows NT 10.0; Win64; x64) AppleWebKit/537.36 (KHTML, like Gecko) Chrome/138.0.0.0 Safari/537.36" version="28.0.6">
  <diagram name="Sistema de Gestión de Eventos" id="CfptZKL96Jpx1s0kOHte">
    <mxGraphModel grid="1" page="1" gridSize="10" guides="1" tooltips="1" connect="1" arrows="1" fold="1" pageScale="1" pageWidth="827" pageHeight="1169" math="0" shadow="0">
      <root>
        <mxCell id="0" />
        <mxCell id="1" parent="0" />
        <mxCell id="4RI8IR06SBJP_CRjdj1Z-50" value="" style="shape=folder;fontStyle=1;spacingTop=10;tabWidth=80;tabHeight=30;tabPosition=left;html=1;whiteSpace=wrap;" vertex="1" parent="1">
          <mxGeometry x="-80" y="1230" width="1440" height="1150" as="geometry" />
        </mxCell>
        <mxCell id="4RI8IR06SBJP_CRjdj1Z-51" value="&lt;font style=&quot;font-size: 24px;&quot;&gt;Sistema de Gestión de Logistica de Eventos&lt;/font&gt;" style="text;align=center;fontStyle=1;verticalAlign=middle;spacingLeft=3;spacingRight=3;strokeColor=none;rotatable=0;points=[[0,0.5],[1,0.5]];portConstraint=eastwest;html=1;" vertex="1" parent="1">
          <mxGeometry x="382.5" y="1280" width="515" height="26" as="geometry" />
        </mxCell>
        <mxCell id="4RI8IR06SBJP_CRjdj1Z-53" value="" style="shape=folder;fontStyle=1;spacingTop=10;tabWidth=80;tabHeight=30;tabPosition=left;html=1;whiteSpace=wrap;" vertex="1" parent="1">
          <mxGeometry x="-50" y="1330" width="360" height="320" as="geometry" />
        </mxCell>
        <mxCell id="4RI8IR06SBJP_CRjdj1Z-54" value="Paquete Usuarios" style="text;align=center;fontStyle=1;verticalAlign=middle;spacingLeft=3;spacingRight=3;strokeColor=none;rotatable=0;points=[[0,0.5],[1,0.5]];portConstraint=eastwest;html=1;" vertex="1" parent="1">
          <mxGeometry x="70" y="1374" width="120" height="26" as="geometry" />
        </mxCell>
        <mxCell id="4RI8IR06SBJP_CRjdj1Z-55" value="Usuario&amp;nbsp;" style="shape=folder;fontStyle=1;spacingTop=10;tabWidth=40;tabHeight=14;tabPosition=left;html=1;whiteSpace=wrap;" vertex="1" parent="1">
          <mxGeometry x="-30" y="1410" width="140" height="90" as="geometry" />
        </mxCell>
        <mxCell id="4RI8IR06SBJP_CRjdj1Z-56" value="Cliente" style="shape=folder;fontStyle=1;spacingTop=10;tabWidth=40;tabHeight=14;tabPosition=left;html=1;whiteSpace=wrap;" vertex="1" parent="1">
          <mxGeometry x="-30" y="1530" width="140" height="90" as="geometry" />
        </mxCell>
        <mxCell id="4RI8IR06SBJP_CRjdj1Z-57" value="Administrador" style="shape=folder;fontStyle=1;spacingTop=10;tabWidth=40;tabHeight=14;tabPosition=left;html=1;whiteSpace=wrap;" vertex="1" parent="1">
          <mxGeometry x="140" y="1410" width="140" height="90" as="geometry" />
        </mxCell>
        <mxCell id="4RI8IR06SBJP_CRjdj1Z-58" value="Guest" style="shape=folder;fontStyle=1;spacingTop=10;tabWidth=40;tabHeight=14;tabPosition=left;html=1;whiteSpace=wrap;" vertex="1" parent="1">
          <mxGeometry x="140" y="1530" width="140" height="90" as="geometry" />
        </mxCell>
        <mxCell id="4RI8IR06SBJP_CRjdj1Z-59" value="" style="shape=folder;fontStyle=1;spacingTop=10;tabWidth=80;tabHeight=30;tabPosition=left;html=1;whiteSpace=wrap;" vertex="1" parent="1">
          <mxGeometry x="555" y="1330" width="360" height="320" as="geometry" />
        </mxCell>
        <mxCell id="4RI8IR06SBJP_CRjdj1Z-60" value="Paquete Eventos" style="text;align=center;fontStyle=1;verticalAlign=middle;spacingLeft=3;spacingRight=3;strokeColor=none;rotatable=0;points=[[0,0.5],[1,0.5]];portConstraint=eastwest;html=1;" vertex="1" parent="1">
          <mxGeometry x="675" y="1374" width="120" height="26" as="geometry" />
        </mxCell>
        <mxCell id="4RI8IR06SBJP_CRjdj1Z-61" value="Evento" style="shape=folder;fontStyle=1;spacingTop=10;tabWidth=40;tabHeight=14;tabPosition=left;html=1;whiteSpace=wrap;" vertex="1" parent="1">
          <mxGeometry x="575" y="1410" width="140" height="90" as="geometry" />
        </mxCell>
        <mxCell id="4RI8IR06SBJP_CRjdj1Z-62" value="RecursosEventos" style="shape=folder;fontStyle=1;spacingTop=10;tabWidth=40;tabHeight=14;tabPosition=left;html=1;whiteSpace=wrap;" vertex="1" parent="1">
          <mxGeometry x="665" y="1525" width="140" height="90" as="geometry" />
        </mxCell>
        <mxCell id="4RI8IR06SBJP_CRjdj1Z-63" value="Recurso" style="shape=folder;fontStyle=1;spacingTop=10;tabWidth=40;tabHeight=14;tabPosition=left;html=1;whiteSpace=wrap;" vertex="1" parent="1">
          <mxGeometry x="745" y="1410" width="140" height="90" as="geometry" />
        </mxCell>
        <mxCell id="4RI8IR06SBJP_CRjdj1Z-64" value="" style="shape=folder;fontStyle=1;spacingTop=10;tabWidth=80;tabHeight=30;tabPosition=left;html=1;whiteSpace=wrap;" vertex="1" parent="1">
          <mxGeometry x="-50" y="1730" width="360" height="200" as="geometry" />
        </mxCell>
        <mxCell id="4RI8IR06SBJP_CRjdj1Z-65" value="Paquete Solicitudes Y Citas" style="text;align=center;fontStyle=1;verticalAlign=middle;spacingLeft=3;spacingRight=3;strokeColor=none;rotatable=0;points=[[0,0.5],[1,0.5]];portConstraint=eastwest;html=1;" vertex="1" parent="1">
          <mxGeometry x="50" y="1772" width="160" height="26" as="geometry" />
        </mxCell>
        <mxCell id="4RI8IR06SBJP_CRjdj1Z-66" value="Solicitud" style="shape=folder;fontStyle=1;spacingTop=10;tabWidth=40;tabHeight=14;tabPosition=left;html=1;whiteSpace=wrap;" vertex="1" parent="1">
          <mxGeometry x="-30" y="1810" width="140" height="90" as="geometry" />
        </mxCell>
        <mxCell id="4RI8IR06SBJP_CRjdj1Z-67" value="Citas" style="shape=folder;fontStyle=1;spacingTop=10;tabWidth=40;tabHeight=14;tabPosition=left;html=1;whiteSpace=wrap;" vertex="1" parent="1">
          <mxGeometry x="140" y="1810" width="140" height="90" as="geometry" />
        </mxCell>
        <mxCell id="4RI8IR06SBJP_CRjdj1Z-68" style="edgeStyle=orthogonalEdgeStyle;rounded=0;orthogonalLoop=1;jettySize=auto;html=1;entryX=0;entryY=0;entryDx=0;entryDy=175;entryPerimeter=0;dashed=1;" edge="1" parent="1" source="4RI8IR06SBJP_CRjdj1Z-53" target="4RI8IR06SBJP_CRjdj1Z-59">
          <mxGeometry relative="1" as="geometry">
            <Array as="points">
              <mxPoint x="380" y="1505" />
              <mxPoint x="380" y="1505" />
            </Array>
          </mxGeometry>
        </mxCell>
        <mxCell id="4RI8IR06SBJP_CRjdj1Z-69" value="&amp;lt;&amp;lt;uses&amp;gt;&amp;gt;" style="edgeLabel;html=1;align=center;verticalAlign=middle;resizable=0;points=[];" connectable="0" vertex="1" parent="4RI8IR06SBJP_CRjdj1Z-68">
          <mxGeometry x="-0.0597" relative="1" as="geometry">
            <mxPoint x="-1" as="offset" />
          </mxGeometry>
        </mxCell>
        <mxCell id="4RI8IR06SBJP_CRjdj1Z-70" style="edgeStyle=orthogonalEdgeStyle;rounded=0;orthogonalLoop=1;jettySize=auto;html=1;entryX=0.505;entryY=0.16;entryDx=0;entryDy=0;entryPerimeter=0;dashed=1;" edge="1" parent="1" source="4RI8IR06SBJP_CRjdj1Z-53" target="4RI8IR06SBJP_CRjdj1Z-64">
          <mxGeometry relative="1" as="geometry">
            <Array as="points">
              <mxPoint x="132" y="1670" />
              <mxPoint x="132" y="1670" />
            </Array>
          </mxGeometry>
        </mxCell>
        <mxCell id="4RI8IR06SBJP_CRjdj1Z-71" value="&amp;lt;&amp;lt;uses&amp;gt;&amp;gt;" style="edgeLabel;html=1;align=center;verticalAlign=middle;resizable=0;points=[];" connectable="0" vertex="1" parent="4RI8IR06SBJP_CRjdj1Z-70">
          <mxGeometry x="-0.1007" relative="1" as="geometry">
            <mxPoint as="offset" />
          </mxGeometry>
        </mxCell>
        <mxCell id="9f_FRD0jTQs3n2ORVnrC-2" value="" style="shape=folder;fontStyle=1;spacingTop=10;tabWidth=80;tabHeight=30;tabPosition=left;html=1;whiteSpace=wrap;" vertex="1" parent="1">
          <mxGeometry x="635" y="1754" width="210" height="210" as="geometry" />
        </mxCell>
        <mxCell id="9f_FRD0jTQs3n2ORVnrC-3" value="Paquete Contratos" style="text;align=center;fontStyle=1;verticalAlign=middle;spacingLeft=3;spacingRight=3;strokeColor=none;rotatable=0;points=[[0,0.5],[1,0.5]];portConstraint=eastwest;html=1;" vertex="1" parent="1">
          <mxGeometry x="680" y="1793" width="120" height="26" as="geometry" />
        </mxCell>
        <mxCell id="9f_FRD0jTQs3n2ORVnrC-4" value="Contrato" style="shape=folder;fontStyle=1;spacingTop=10;tabWidth=40;tabHeight=14;tabPosition=left;html=1;whiteSpace=wrap;" vertex="1" parent="1">
          <mxGeometry x="670" y="1830" width="140" height="90" as="geometry" />
        </mxCell>
        <mxCell id="9f_FRD0jTQs3n2ORVnrC-5" style="rounded=0;orthogonalLoop=1;jettySize=auto;html=1;entryX=0;entryY=0;entryDx=0;entryDy=120;entryPerimeter=0;dashed=1;exitX=0;exitY=0;exitDx=360;exitDy=247.5;exitPerimeter=0;" edge="1" parent="1" source="4RI8IR06SBJP_CRjdj1Z-53" target="9f_FRD0jTQs3n2ORVnrC-2">
          <mxGeometry relative="1" as="geometry" />
        </mxCell>
        <mxCell id="9f_FRD0jTQs3n2ORVnrC-6" value="&amp;lt;&amp;lt;uses&amp;gt;&amp;gt;" style="edgeLabel;html=1;align=center;verticalAlign=middle;resizable=0;points=[];" connectable="0" vertex="1" parent="9f_FRD0jTQs3n2ORVnrC-5">
          <mxGeometry x="-0.0383" y="-1" relative="1" as="geometry">
            <mxPoint as="offset" />
          </mxGeometry>
        </mxCell>
        <mxCell id="9f_FRD0jTQs3n2ORVnrC-7" value="" style="shape=folder;fontStyle=1;spacingTop=10;tabWidth=80;tabHeight=30;tabPosition=left;html=1;whiteSpace=wrap;" vertex="1" parent="1">
          <mxGeometry x="560" y="2000" width="360" height="320" as="geometry" />
        </mxCell>
        <mxCell id="9f_FRD0jTQs3n2ORVnrC-8" value="Paquete Encuestas" style="text;align=center;fontStyle=1;verticalAlign=middle;spacingLeft=3;spacingRight=3;strokeColor=none;rotatable=0;points=[[0,0.5],[1,0.5]];portConstraint=eastwest;html=1;" vertex="1" parent="1">
          <mxGeometry x="680" y="2044" width="120" height="26" as="geometry" />
        </mxCell>
        <mxCell id="9f_FRD0jTQs3n2ORVnrC-9" value="Encuesta" style="shape=folder;fontStyle=1;spacingTop=10;tabWidth=40;tabHeight=14;tabPosition=left;html=1;whiteSpace=wrap;" vertex="1" parent="1">
          <mxGeometry x="580" y="2080" width="140" height="90" as="geometry" />
        </mxCell>
        <mxCell id="9f_FRD0jTQs3n2ORVnrC-10" value="Respuestas" style="shape=folder;fontStyle=1;spacingTop=10;tabWidth=40;tabHeight=14;tabPosition=left;html=1;whiteSpace=wrap;" vertex="1" parent="1">
          <mxGeometry x="660" y="2200" width="140" height="90" as="geometry" />
        </mxCell>
        <mxCell id="9f_FRD0jTQs3n2ORVnrC-11" value="Preguntas" style="shape=folder;fontStyle=1;spacingTop=10;tabWidth=40;tabHeight=14;tabPosition=left;html=1;whiteSpace=wrap;" vertex="1" parent="1">
          <mxGeometry x="750" y="2080" width="140" height="90" as="geometry" />
        </mxCell>
        <mxCell id="9f_FRD0jTQs3n2ORVnrC-12" style="rounded=0;orthogonalLoop=1;jettySize=auto;html=1;entryX=0;entryY=0;entryDx=0;entryDy=175;entryPerimeter=0;dashed=1;exitX=0;exitY=0;exitDx=360;exitDy=320;exitPerimeter=0;" edge="1" parent="1" source="4RI8IR06SBJP_CRjdj1Z-53" target="9f_FRD0jTQs3n2ORVnrC-7">
          <mxGeometry relative="1" as="geometry" />
        </mxCell>
        <mxCell id="9f_FRD0jTQs3n2ORVnrC-13" value="&amp;lt;&amp;lt;uses&amp;gt;&amp;gt;" style="edgeLabel;html=1;align=center;verticalAlign=middle;resizable=0;points=[];" connectable="0" vertex="1" parent="9f_FRD0jTQs3n2ORVnrC-12">
          <mxGeometry x="-0.0124" y="-3" relative="1" as="geometry">
            <mxPoint y="1" as="offset" />
          </mxGeometry>
        </mxCell>
        <mxCell id="9f_FRD0jTQs3n2ORVnrC-14" value="" style="shape=folder;fontStyle=1;spacingTop=10;tabWidth=80;tabHeight=30;tabPosition=left;html=1;whiteSpace=wrap;" vertex="1" parent="1">
          <mxGeometry x="-50" y="2000" width="360" height="320" as="geometry" />
        </mxCell>
        <mxCell id="9f_FRD0jTQs3n2ORVnrC-15" value="Paquete Galeria y Multimedia" style="text;align=center;fontStyle=1;verticalAlign=middle;spacingLeft=3;spacingRight=3;strokeColor=none;rotatable=0;points=[[0,0.5],[1,0.5]];portConstraint=eastwest;html=1;" vertex="1" parent="1">
          <mxGeometry x="70" y="2044" width="120" height="26" as="geometry" />
        </mxCell>
        <mxCell id="9f_FRD0jTQs3n2ORVnrC-16" value="Galeria" style="shape=folder;fontStyle=1;spacingTop=10;tabWidth=40;tabHeight=14;tabPosition=left;html=1;whiteSpace=wrap;" vertex="1" parent="1">
          <mxGeometry x="-30" y="2080" width="140" height="90" as="geometry" />
        </mxCell>
        <mxCell id="9f_FRD0jTQs3n2ORVnrC-17" value="Comentario" style="shape=folder;fontStyle=1;spacingTop=10;tabWidth=40;tabHeight=14;tabPosition=left;html=1;whiteSpace=wrap;" vertex="1" parent="1">
          <mxGeometry x="60" y="2205" width="140" height="90" as="geometry" />
        </mxCell>
        <mxCell id="9f_FRD0jTQs3n2ORVnrC-18" value="ArchivoMultimedia" style="shape=folder;fontStyle=1;spacingTop=10;tabWidth=40;tabHeight=14;tabPosition=left;html=1;whiteSpace=wrap;" vertex="1" parent="1">
          <mxGeometry x="140" y="2080" width="140" height="90" as="geometry" />
        </mxCell>
        <mxCell id="9f_FRD0jTQs3n2ORVnrC-19" style="edgeStyle=orthogonalEdgeStyle;rounded=0;orthogonalLoop=1;jettySize=auto;html=1;entryX=0;entryY=0;entryDx=360;entryDy=175;entryPerimeter=0;dashed=1;exitX=0;exitY=0;exitDx=360;exitDy=102.5;exitPerimeter=0;" edge="1" parent="1" source="4RI8IR06SBJP_CRjdj1Z-53" target="9f_FRD0jTQs3n2ORVnrC-14">
          <mxGeometry relative="1" as="geometry">
            <Array as="points">
              <mxPoint x="370" y="1433" />
              <mxPoint x="370" y="2175" />
            </Array>
          </mxGeometry>
        </mxCell>
        <mxCell id="9f_FRD0jTQs3n2ORVnrC-20" value="&amp;lt;&amp;lt;uses&amp;gt;&amp;gt;" style="edgeLabel;html=1;align=center;verticalAlign=middle;resizable=0;points=[];" connectable="0" vertex="1" parent="9f_FRD0jTQs3n2ORVnrC-19">
          <mxGeometry x="0.2991" y="-1" relative="1" as="geometry">
            <mxPoint as="offset" />
          </mxGeometry>
        </mxCell>
        <mxCell id="9f_FRD0jTQs3n2ORVnrC-22" value="" style="shape=folder;fontStyle=1;spacingTop=10;tabWidth=80;tabHeight=30;tabPosition=left;html=1;whiteSpace=wrap;" vertex="1" parent="1">
          <mxGeometry x="1070" y="1725" width="210" height="210" as="geometry" />
        </mxCell>
        <mxCell id="9f_FRD0jTQs3n2ORVnrC-23" value="Paquete Notificaciones" style="text;align=center;fontStyle=1;verticalAlign=middle;spacingLeft=3;spacingRight=3;strokeColor=none;rotatable=0;points=[[0,0.5],[1,0.5]];portConstraint=eastwest;html=1;" vertex="1" parent="1">
          <mxGeometry x="1115" y="1767" width="120" height="26" as="geometry" />
        </mxCell>
        <mxCell id="9f_FRD0jTQs3n2ORVnrC-24" value="Notificaciones" style="shape=folder;fontStyle=1;spacingTop=10;tabWidth=40;tabHeight=14;tabPosition=left;html=1;whiteSpace=wrap;" vertex="1" parent="1">
          <mxGeometry x="1100" y="1805" width="140" height="90" as="geometry" />
        </mxCell>
        <mxCell id="9f_FRD0jTQs3n2ORVnrC-25" style="rounded=0;orthogonalLoop=1;jettySize=auto;html=1;entryX=0;entryY=0;entryDx=0;entryDy=120;entryPerimeter=0;dashed=1;" edge="1" parent="1" source="4RI8IR06SBJP_CRjdj1Z-53" target="9f_FRD0jTQs3n2ORVnrC-22">
          <mxGeometry relative="1" as="geometry" />
        </mxCell>
        <mxCell id="9f_FRD0jTQs3n2ORVnrC-26" value="&amp;lt;&amp;lt;uses&amp;gt;&amp;gt;" style="edgeLabel;html=1;align=center;verticalAlign=middle;resizable=0;points=[];" connectable="0" vertex="1" parent="9f_FRD0jTQs3n2ORVnrC-25">
          <mxGeometry x="-0.0118" y="1" relative="1" as="geometry">
            <mxPoint x="-66" y="-19" as="offset" />
          </mxGeometry>
        </mxCell>
        <mxCell id="9f_FRD0jTQs3n2ORVnrC-27" style="rounded=0;orthogonalLoop=1;jettySize=auto;html=1;entryX=0;entryY=0;entryDx=80;entryDy=30;entryPerimeter=0;dashed=1;" edge="1" parent="1" source="4RI8IR06SBJP_CRjdj1Z-59" target="9f_FRD0jTQs3n2ORVnrC-2">
          <mxGeometry relative="1" as="geometry" />
        </mxCell>
        <mxCell id="9f_FRD0jTQs3n2ORVnrC-28" value="&amp;lt;&amp;lt;access&amp;gt;&amp;gt;" style="edgeLabel;html=1;align=center;verticalAlign=middle;resizable=0;points=[];" connectable="0" vertex="1" parent="9f_FRD0jTQs3n2ORVnrC-27">
          <mxGeometry x="-0.3678" y="1" relative="1" as="geometry">
            <mxPoint x="-7" y="-22" as="offset" />
          </mxGeometry>
        </mxCell>
        <mxCell id="9f_FRD0jTQs3n2ORVnrC-29" style="edgeStyle=orthogonalEdgeStyle;rounded=0;orthogonalLoop=1;jettySize=auto;html=1;entryX=0.506;entryY=0.128;entryDx=0;entryDy=0;entryPerimeter=0;dashed=1;" edge="1" parent="1" source="4RI8IR06SBJP_CRjdj1Z-59" target="9f_FRD0jTQs3n2ORVnrC-22">
          <mxGeometry relative="1" as="geometry" />
        </mxCell>
        <mxCell id="9f_FRD0jTQs3n2ORVnrC-30" value="&amp;lt;&amp;lt;uses&amp;gt;&amp;gt;" style="edgeLabel;html=1;align=center;verticalAlign=middle;resizable=0;points=[];" connectable="0" vertex="1" parent="9f_FRD0jTQs3n2ORVnrC-29">
          <mxGeometry x="-0.0028" y="2" relative="1" as="geometry">
            <mxPoint x="1" as="offset" />
          </mxGeometry>
        </mxCell>
        <mxCell id="9f_FRD0jTQs3n2ORVnrC-31" style="edgeStyle=orthogonalEdgeStyle;rounded=0;orthogonalLoop=1;jettySize=auto;html=1;entryX=0;entryY=0;entryDx=360;entryDy=102.5;entryPerimeter=0;dashed=1;" edge="1" parent="1" source="4RI8IR06SBJP_CRjdj1Z-59" target="4RI8IR06SBJP_CRjdj1Z-53">
          <mxGeometry relative="1" as="geometry">
            <Array as="points">
              <mxPoint x="500" y="1433" />
              <mxPoint x="500" y="1433" />
            </Array>
          </mxGeometry>
        </mxCell>
        <mxCell id="9f_FRD0jTQs3n2ORVnrC-32" value="&amp;lt;&amp;lt;access&amp;gt;&amp;gt;" style="edgeLabel;html=1;align=center;verticalAlign=middle;resizable=0;points=[];" connectable="0" vertex="1" parent="9f_FRD0jTQs3n2ORVnrC-31">
          <mxGeometry x="0.0048" y="1" relative="1" as="geometry">
            <mxPoint x="1" as="offset" />
          </mxGeometry>
        </mxCell>
        <mxCell id="9f_FRD0jTQs3n2ORVnrC-33" style="rounded=0;orthogonalLoop=1;jettySize=auto;html=1;entryX=0.75;entryY=1;entryDx=0;entryDy=0;entryPerimeter=0;exitX=0;exitY=0;exitDx=145;exitDy=30;exitPerimeter=0;dashed=1;" edge="1" parent="1" source="9f_FRD0jTQs3n2ORVnrC-2" target="4RI8IR06SBJP_CRjdj1Z-59">
          <mxGeometry relative="1" as="geometry" />
        </mxCell>
        <mxCell id="9f_FRD0jTQs3n2ORVnrC-34" value="&amp;lt;&amp;lt;access&amp;gt;&amp;gt;" style="edgeLabel;html=1;align=center;verticalAlign=middle;resizable=0;points=[];" connectable="0" vertex="1" parent="9f_FRD0jTQs3n2ORVnrC-33">
          <mxGeometry x="0.0167" y="2" relative="1" as="geometry">
            <mxPoint x="1" as="offset" />
          </mxGeometry>
        </mxCell>
        <mxCell id="9f_FRD0jTQs3n2ORVnrC-35" style="rounded=0;orthogonalLoop=1;jettySize=auto;html=1;entryX=0;entryY=0;entryDx=360;entryDy=247.5;entryPerimeter=0;dashed=1;" edge="1" parent="1" source="9f_FRD0jTQs3n2ORVnrC-2" target="4RI8IR06SBJP_CRjdj1Z-53">
          <mxGeometry relative="1" as="geometry" />
        </mxCell>
        <mxCell id="9f_FRD0jTQs3n2ORVnrC-36" value="&amp;lt;&amp;lt;access&amp;gt;&amp;gt;" style="edgeLabel;html=1;align=center;verticalAlign=middle;resizable=0;points=[];" connectable="0" vertex="1" parent="9f_FRD0jTQs3n2ORVnrC-35">
          <mxGeometry x="-0.0013" y="-1" relative="1" as="geometry">
            <mxPoint as="offset" />
          </mxGeometry>
        </mxCell>
        <mxCell id="9f_FRD0jTQs3n2ORVnrC-37" style="rounded=0;orthogonalLoop=1;jettySize=auto;html=1;entryX=0;entryY=0;entryDx=0;entryDy=165;entryPerimeter=0;dashed=1;" edge="1" parent="1" source="9f_FRD0jTQs3n2ORVnrC-2" target="9f_FRD0jTQs3n2ORVnrC-22">
          <mxGeometry relative="1" as="geometry" />
        </mxCell>
        <mxCell id="9f_FRD0jTQs3n2ORVnrC-38" value="&amp;lt;&amp;lt;uses&amp;gt;&amp;gt;" style="edgeLabel;html=1;align=center;verticalAlign=middle;resizable=0;points=[];" connectable="0" vertex="1" parent="9f_FRD0jTQs3n2ORVnrC-37">
          <mxGeometry x="-0.0136" y="1" relative="1" as="geometry">
            <mxPoint as="offset" />
          </mxGeometry>
        </mxCell>
        <mxCell id="9f_FRD0jTQs3n2ORVnrC-39" style="edgeStyle=orthogonalEdgeStyle;rounded=0;orthogonalLoop=1;jettySize=auto;html=1;entryX=0.5;entryY=1;entryDx=0;entryDy=0;entryPerimeter=0;dashed=1;" edge="1" parent="1" source="4RI8IR06SBJP_CRjdj1Z-64" target="9f_FRD0jTQs3n2ORVnrC-22">
          <mxGeometry relative="1" as="geometry">
            <Array as="points">
              <mxPoint x="130" y="1980" />
              <mxPoint x="1175" y="1980" />
            </Array>
          </mxGeometry>
        </mxCell>
        <mxCell id="9f_FRD0jTQs3n2ORVnrC-40" value="&amp;lt;&amp;lt;uses&amp;gt;&amp;gt;" style="edgeLabel;html=1;align=center;verticalAlign=middle;resizable=0;points=[];" connectable="0" vertex="1" parent="9f_FRD0jTQs3n2ORVnrC-39">
          <mxGeometry x="0.1127" y="-1" relative="1" as="geometry">
            <mxPoint as="offset" />
          </mxGeometry>
        </mxCell>
        <mxCell id="9f_FRD0jTQs3n2ORVnrC-41" style="edgeStyle=orthogonalEdgeStyle;rounded=0;orthogonalLoop=1;jettySize=auto;html=1;entryX=0.75;entryY=1;entryDx=0;entryDy=0;entryPerimeter=0;dashed=1;" edge="1" parent="1" source="9f_FRD0jTQs3n2ORVnrC-7" target="9f_FRD0jTQs3n2ORVnrC-22">
          <mxGeometry relative="1" as="geometry" />
        </mxCell>
        <mxCell id="9f_FRD0jTQs3n2ORVnrC-42" value="&amp;lt;&amp;lt;uses&amp;gt;&amp;gt;" style="edgeLabel;html=1;align=center;verticalAlign=middle;resizable=0;points=[];" connectable="0" vertex="1" parent="9f_FRD0jTQs3n2ORVnrC-41">
          <mxGeometry x="0.1507" relative="1" as="geometry">
            <mxPoint as="offset" />
          </mxGeometry>
        </mxCell>
        <mxCell id="9f_FRD0jTQs3n2ORVnrC-43" style="edgeStyle=orthogonalEdgeStyle;rounded=0;orthogonalLoop=1;jettySize=auto;html=1;entryX=0;entryY=0;entryDx=360;entryDy=30;entryPerimeter=0;exitX=0;exitY=0;exitDx=360;exitDy=247.5;exitPerimeter=0;dashed=1;" edge="1" parent="1" source="9f_FRD0jTQs3n2ORVnrC-14" target="4RI8IR06SBJP_CRjdj1Z-53">
          <mxGeometry relative="1" as="geometry">
            <Array as="points">
              <mxPoint x="420" y="2247" />
              <mxPoint x="420" y="1360" />
            </Array>
          </mxGeometry>
        </mxCell>
        <mxCell id="9f_FRD0jTQs3n2ORVnrC-44" value="&amp;lt;&amp;lt;access&amp;gt;&amp;gt;" style="edgeLabel;html=1;align=center;verticalAlign=middle;resizable=0;points=[];" connectable="0" vertex="1" parent="9f_FRD0jTQs3n2ORVnrC-43">
          <mxGeometry x="0.0223" y="-3" relative="1" as="geometry">
            <mxPoint y="-11" as="offset" />
          </mxGeometry>
        </mxCell>
      </root>
    </mxGraphModel>
  </diagram>
</mxfile>
